<svg xmlns="http://www.w3.org/2000/svg" viewBox="0 0 511.5 556.1"><path fill="#0E3F36" d="M120.8 295.5v4.2h.2v12.5h16.6v-16.7zM271.8 144.4h16.8v16.8h-16.8z"/><path fill="#663200" d="M372.9 379.7v16.8h-16.8v-16.8h16.6z"/><path fill="#210D00" d="M372.9 362.9v16.8h-16.8v-16.8h16.6zM356.1 396.3v.2h-16.8v-16.8h16.8z"/><path fill="#A95400" d="M339.3 362.9h16.8v16.8h-16.8z"/><path fill="#210D00" d="M356.1 352.2v-6h-16.8v16.7h16.8v-10.7zM322.5 362.9h16.8v16.8h-16.8z"/><path fill="#663200" d="M322.5 346.2h16.8V363h-16.8z"/><path fill="#210D00" d="M322.5 329.4h16.8v16.8h-16.8zM305.7 346.2h16.8V363h-16.8z"/><path fill="#A95400" d="M305.7 329.4h16.8v16.8h-16.8z"/><path fill="#210D00" d="M305.7 312.2h16.8v17.1h-16.8zM288.6 329.4h17.1v16.8h-17.1z"/><path fill="#663200" d="M288.6 312.2h17.1v17.1h-17.1z"/><path fill="#210D00" d="M288.6 295.5h17.1v16.8h-17.1zM271.8 312.2h16.8v17.1h-16.8z"/><path fill="#A95400" d="M271.8 295.5h16.8v16.8h-16.8z"/><path fill="#210D00" d="M271.8 278.7h16.8v16.8h-16.8zM255 295.5h16.8v16.8H255z"/><path fill="#663200" d="M255 278.7h16.8v16.8H255z"/><path fill="#210D00" d="M255 261.9h16.8v16.8H255z"/><path fill="#0E3F36" d="M255 161.2h16.8V178H255z"/><path fill="#2CB199" d="M255 144.4h16.8v16.8H255z"/><path fill="#0E3F36" d="M255 127.6h16.8v16.8H255z"/><path fill="#210D00" d="M238.2 278.7H255v16.8h-16.8z"/><path fill="#A95400" d="M238.2 261.9H255v16.8h-16.8z"/><path fill="#210D00" d="M238.2 245.1H255v16.8h-16.8z"/><path fill="#0E3F36" d="M238.2 161.2H255V178h-16.8z"/><path fill="#2CB199" d="M238.2 144.4H255v16.8h-16.8z"/><path fill="#0E3F36" d="M238.2 127.6H255v16.8h-16.8z"/><path fill="#210D00" d="M221.5 261.9h16.8v16.8h-16.8z"/><path fill="#663200" d="M221.5 245.1h16.8v16.8h-16.8z"/><path fill="#210D00" d="M221.5 228.3h16.8v16.8h-16.8z"/><path fill="#0E3F36" d="M221.5 161.2h16.8V178h-16.8z"/><path fill="#2CB199" d="M221.5 144.4h16.8v16.8h-16.8z"/><path fill="#0E3F36" d="M221.5 127.6h16.8v16.8h-16.8z"/><path fill="#210D00" d="M204.7 245.1h16.8v16.8h-16.8z"/><path fill="#A95400" d="M204.7 228.3h16.8v16.8h-16.8z"/><path fill="#432100" d="M221.4 227.4v-15.8h-16.7v16.7h16.8v-.9z"/><path fill="#0E3F36" d="M204.7 161.2h16.8V178h-16.8z"/><path fill="#2CB199" d="M204.7 144.4h16.8v16.8h-16.8z"/><path fill="#0E3F36" d="M204.7 127.6h16.8v16.8h-16.8z"/><path fill="#210D00" d="M187.9 228.3h16.8v16.8h-16.8z"/><path fill="#663200" d="M187.9 211.6h16.8v16.8h-16.8z"/><path fill="#432100" d="M187.9 194.8h16.8v16.8h-16.8z"/><path fill="#663200" d="M187.9 178h16.8v16.8h-16.8z"/><path fill="#2CB199" d="M187.9 161.2h16.8V178h-16.8z"/><path fill="#2CB199" d="M187.9 144.4h16.8v16.8h-16.8z"/><path fill="#0E3F36" d="M187.9 127.6h16.8v16.8h-16.8z"/><path fill="#210D00" d="M171.1 211.6h16.8v16.8h-16.8z"/><path fill="#A95400" d="M171.1 194.8h16.8v16.8h-16.8z"/><path fill="#3DEBCB" d="M171.1 178h16.8v16.8h-16.8z"/><path fill="#2CB199" d="M171.1 161.2h16.8V178h-16.8z"/><path fill="#3DEBCB" d="M171.1 144.4h16.8v16.8h-16.8z"/><path fill="#0E3F36" d="M171.1 127.6h16.8v16.8h-16.8z"/><path fill="#210D00" d="M154.3 211.6h16.8v16.8h-16.8z"/><path fill="#3DEBCB" d="M154.3 194.8h16.8v16.8h-16.8zM154.3 178h16.8v16.8h-16.8z"/><path fill="#2CB199" d="M154.3 161.2h16.8V178h-16.8z"/><path fill="#3DEBCB" d="M154.3 144.4h16.8v16.8h-16.8z"/><path fill="#0E3F36" d="M154.3 127.6h16.8v16.8h-16.8zM137.6 278.7h16.8v16.8h-16.8zM137.6 261.9h16.8v16.8h-16.8zM137.6 245.1h16.8v16.8h-16.8z"/><path fill="#0E3F36" d="M137.6 228.3h16.8v16.8h-16.8z"/><path fill="#2CB199" d="M137.6 211.6h16.8v16.8h-16.8z"/><path fill="#2CB199" d="M137.6 194.8h16.8v16.8h-16.8zM137.6 178h16.8v16.8h-16.8z"/><path fill="#A95400" d="M137.6 161.2h16.8V178h-16.8z"/><path fill="#432100" d="M137.6 144.4h16.8v16.8h-16.8z"/><path fill="#2CB199" d="M120.8 278.7h16.8v16.8h-16.8zM120.8 261.9h16.8v16.8h-16.8zM120.8 245.1h16.8v16.8h-16.8z"/><path fill="#2CB199" d="M120.8 228.3h16.8v16.8h-16.8z"/><path fill="#2CB199" d="M120.8 211.6h16.8v16.8h-16.8z"/><path fill="#3DEBCB" d="M120.8 194.8h16.8v16.8h-16.8zM120.8 178h16.8v16.8h-16.8z"/><path fill="#210D00" d="M120.8 161.2h16.8V178h-16.8z"/><path fill="#663200" d="M120.8 144.4h16.8v16.8h-16.8z"/><path fill="#0E3F36" d="M104 278.7h16.8v16.8H104zM104 261.9h16.8v16.8H104zM104 245.1h16.8v16.8H104z"/><path fill="#0E3F36" d="M104 228.3h16.8v16.8H104z"/><path fill="#0E3F36" d="M104 211.6h16.8v16.8H104z"/><path fill="#0E3F36" d="M104 194.8h16.8v16.8H104zM104 178h16.8v16.8H104z"/><g fill="none"><path d="M357.9 359.8v-7.6h-1.8v-7.3h-15.9v-17.2h-1.8v.5h-15.3v-16.3h-11.8v-.4h-5.4v-17.2h-17.2V278H272v-17.6h-16.3v-15.8h-14.9v-18.1h-.5v.9h-18.9v-17.6H206v-12.2h-.5v-17.7H272v-16.2h.9v-.9h15.8v-19.5h-15.8v-16.2H153.6v17.1h-33.9v33h-16.3v118.9h16.7v3.6h.9v13.6h17.2v-17.2h17.2v-66.9h1.8v-.4h29.4v18h17.6V264h16.7v17.2h15.8v15.4h17.2v16.7h17.6v17.2h15.9v18.9h17.1v14.5h16.3v16.7h17.6v15.9h34.5v-36.7zM339.6 380.3c10.9-.4 22 .6 33-.6M322.1 363.2c16.6.3 33.8 1 50.5-.2M288.5 346c21.7-.1 43.8 1 65.7.7M272.8 329.3c22.1-.5 44.2.3 66.2.4M254.8 312.1c18.6-.3 36.8.4 55.2.5M122.2 312.1h14.7M238 295.4c22.3.6 44.4.6 66.7.6M104.5 295.5c16.4-.9 33.2.2 49.6-.3M222.2 278.5c21.9 0 43.3.7 65.1.4M104.5 278.7c16.4-.9 33.2.2 49.6-.3M205.5 261.8c21.9-.1 43.7-.1 65.4.1M104.5 261.9c16.4-.9 33.2.2 49.6-.3M187.7 244.8c17.1 1.6 34.6.9 51.8.2M104.5 245.1c16.4-.9 33.2.2 49.6-.3M187.7 228c17.1 1.6 34.6.9 51.8.2M104.5 228.3c17.1-.9 34.3.2 51.3-.3"/><path d="M104.5 211.6c13.9-.5 27.8-.5 41.8-.2 24.6 0 49.3-.4 73.9.1M104.5 194.8c19.6-.5 38.9-.5 58.5-.2 13.9 0 27.9-.4 41.7 0M121 177.8h149.6M121 161.1h166.6M154.8 144.1c44.3.1 88.2.1 132.5.2M356.1 353.5c-.2 14.3.9 28.5 0 42.8M339.1 329.1c0 22.6 1.1 44.8.2 67.3M322.3 329.4c-.3 16.6.4 33.4.5 50.1M305.2 312.6c.4 16.9-.7 33.3.6 50.1M288.5 295.6c.2 17.5 1 35 .1 52.6M271.5 279.3c.1 11 .1 21.7.2 32.8M271.8 128.2c-.9 11.4.2 22.8-.3 34.2M254.9 245.9c0 22.2 0 44 .1 66.2"/><path d="M255 128.2c-.7 13.1-.2 26.3-.1 39.4v11.1M238 228.7c.1 22.3.1 44.4 0 66.5M238.2 128.2c-.9 16.8.2 33.5-.2 50.5M221.3 228.7c0 11.6 0 22.6-.1 34M221.5 128.2c-.5 16.8-.5 33.5-.4 50.4M204.7 128.2c-.9 39.3.2 78.2-.2 117.4M187.9 128.2c-.9 39.3.2 78.2-.2 117.4M171.1 128.2c-.9 33.2.2 66-.2 99.3M154.2 145.6v149.3M137.4 145.6c-.4 18.3 0 36.1 0 54.3-.4 37.5 0 74.6.1 112.1M120.7 178.4c-.1 39.1-.1 77.6 0 116.4M120.6 145.6c-.2 10.1 0 20.2.1 30.3M103.9 178.4c-.1 39.1-.1 77.6 0 116.5"/></g><path fill="#FFF" d="M256.1 564.6L248 558c-.9-.7-87.1-71.6-115-87.5-27.6-15.7-112.8-42.5-113.7-42.8l-8.7-2.7L9 142.1l4.6-3.8c.4-.3 42.1-34.5 91.4-68.2C172.8 23.8 222.5 0 252.8 0h.4c30.4 0 80.3 23 148.4 68.3 49.6 33 91.6 66.6 92 66.9l4.7 3.7 1.6 282.7-8.3 3c-.9.3-92.6 33.7-119.9 49.6-28.6 16.6-106.9 83-107.7 83.7l-7.9 6.7zM35.5 406.7c23.1 7.5 85.2 28.1 109.8 42.1 24.8 14.1 87.9 64.9 110.5 83.3 21.1-17.7 78.1-64.9 103.3-79.5 24.4-14.2 91.9-39.6 115.6-48.4L473.3 151C424.7 112.7 303 25 253.2 25h-.2c-49.7 0-170.6 89.7-218.9 128.9l1.4 252.8z"/><path fill="#FFF" d="M256.6 510.3l-2.2-1.5c-.8-.6-77-55.2-103.8-70.1-22.3-12.4-94.6-40.5-95.3-40.8l-2.2-.9-3.7-232.8 1.3-1.1c.3-.3 35.4-29.6 76.9-58.6 56.2-39.2 97.1-59.3 121.5-59.7h.7c24.6 0 66 18.9 123.1 56.2 42.2 27.6 77.9 55.6 78.2 55.9l1.3 1 3.7 232.8-2.2.9c-.7.3-73.1 29.7-95.2 42.7-26.5 15.5-99.4 73.7-100.2 74.2l-1.9 1.8zM60.1 392.1c12.6 4.9 73.3 28.8 94 40.3 24.9 13.8 89.4 59.8 102.3 69 12.4-9.8 74.2-58.7 98.9-73.2 20.6-12.1 81.3-37.1 93.9-42.2l-3.5-224.7C431.3 150.2 302.8 51.8 250 51.8h-.6c-52.5.8-178.7 103.9-192.9 115.6l3.6 224.7z"/></svg>