<?xml version="1.0" encoding="utf-8"?>
<!-- Generator: Adobe Illustrator 18.1.1, SVG Export Plug-In . SVG Version: 6.00 Build 0)  -->
<svg version="1.1" id="Layer_1" xmlns="http://www.w3.org/2000/svg" xmlns:xlink="http://www.w3.org/1999/xlink" x="0px" y="0px"
	 viewBox="0 0 511.5 556.1" enable-background="new 0 0 511.5 556.1" xml:space="preserve">
<g>
	<g>
		<g>
			<polygon fill="#0E3F36" points="120.8,295.5 120.8,299.7 121,299.7 121,312.2 137.6,312.2 137.6,295.5 			"/>
			<rect x="271.8" y="144.4" fill="#0E3F36" width="16.8" height="16.8"/>
			<polygon fill="#663200" points="372.9,379.7 372.9,396.5 356.1,396.5 356.1,396.3 356.1,379.7 372.7,379.7 			"/>
			<polygon fill="#210D00" points="372.9,362.9 372.9,379.7 372.7,379.7 356.1,379.7 356.1,362.9 372.7,362.9 			"/>
			<polygon fill="#210D00" points="356.1,396.3 356.1,396.5 339.3,396.5 339.3,396.3 339.3,379.7 356.1,379.7 			"/>
			<rect x="339.3" y="362.9" fill="#A95400" width="16.8" height="16.8"/>
			<polygon fill="#210D00" points="356.1,352.2 356.1,346.2 339.3,346.2 339.3,362.9 356.1,362.9 356.1,352.2 			"/>
			<rect x="322.5" y="362.9" fill="#210D00" width="16.8" height="16.8"/>
			<rect x="322.5" y="346.2" fill="#663200" width="16.8" height="16.8"/>
			<rect x="322.5" y="329.4" fill="#210D00" width="16.8" height="16.8"/>
			<rect x="305.7" y="346.2" fill="#210D00" width="16.8" height="16.8"/>
			<rect x="305.7" y="329.4" fill="#A95400" width="16.8" height="16.8"/>
			<rect x="305.7" y="312.2" fill="#210D00" width="16.8" height="17.1"/>
			<rect x="288.6" y="329.4" fill="#210D00" width="17.1" height="16.8"/>
			<rect x="288.6" y="312.2" fill="#663200" width="17.1" height="17.1"/>
			<rect x="288.6" y="295.5" fill="#210D00" width="17.1" height="16.8"/>
			<rect x="271.8" y="312.2" fill="#210D00" width="16.8" height="17.1"/>
			<rect x="271.8" y="295.5" fill="#A95400" width="16.8" height="16.8"/>
			<rect x="271.8" y="278.7" fill="#210D00" width="16.8" height="16.8"/>
			<rect x="255" y="295.5" fill="#210D00" width="16.8" height="16.8"/>
			<rect x="255" y="278.7" fill="#663200" width="16.8" height="16.8"/>
			<rect x="255" y="261.9" fill="#210D00" width="16.8" height="16.8"/>
			<rect x="255" y="161.2" fill="#0E3F36" width="16.8" height="16.8"/>
			<rect x="255" y="144.4" fill="#2CB199" width="16.8" height="16.8"/>
			<rect x="255" y="127.6" fill="#0E3F36" width="16.8" height="16.8"/>
			<rect x="238.2" y="278.7" fill="#210D00" width="16.8" height="16.8"/>
			<rect x="238.2" y="261.9" fill="#A95400" width="16.8" height="16.8"/>
			<rect x="238.2" y="245.1" fill="#210D00" width="16.8" height="16.8"/>
			<rect x="238.2" y="161.2" fill="#0E3F36" width="16.8" height="16.8"/>
			<rect x="238.2" y="144.4" fill="#2CB199" width="16.8" height="16.8"/>
			<rect x="238.2" y="127.6" fill="#0E3F36" width="16.8" height="16.8"/>
			<rect x="221.5" y="261.9" fill="#210D00" width="16.8" height="16.8"/>
			<rect x="221.5" y="245.1" fill="#663200" width="16.8" height="16.8"/>
			<rect x="221.5" y="228.3" fill="#210D00" width="16.8" height="16.8"/>
			<rect x="221.5" y="161.2" fill="#0E3F36" width="16.8" height="16.8"/>
			<rect x="221.5" y="144.4" fill="#2CB199" width="16.8" height="16.8"/>
			<rect x="221.5" y="127.6" fill="#0E3F36" width="16.8" height="16.8"/>
			<rect x="204.7" y="245.1" fill="#210D00" width="16.8" height="16.8"/>
			<rect x="204.7" y="228.3" fill="#A95400" width="16.8" height="16.8"/>
			<polygon fill="#432100" points="221.4,227.4 221.4,211.6 204.7,211.6 204.7,228.3 221.5,228.3 221.5,227.4 			"/>
			<rect x="204.7" y="161.2" fill="#0E3F36" width="16.8" height="16.8"/>
			<rect x="204.7" y="144.4" fill="#2CB199" width="16.8" height="16.8"/>
			<rect x="204.7" y="127.6" fill="#0E3F36" width="16.8" height="16.8"/>
			<rect x="187.9" y="228.3" fill="#210D00" width="16.8" height="16.8"/>
			<rect x="187.9" y="211.6" fill="#663200" width="16.8" height="16.8"/>
			<rect x="187.9" y="194.8" fill="#432100" width="16.8" height="16.8"/>
			<rect x="187.9" y="178" fill="#663200" width="16.8" height="16.8"/>
			<rect x="187.9" y="161.2" fill="#2CB199" width="16.8" height="16.8"/>
			<rect x="187.9" y="144.4" fill="#2CB199" width="16.8" height="16.8"/>
			<rect x="187.9" y="127.6" fill="#0E3F36" width="16.8" height="16.8"/>
			<rect x="171.1" y="211.6" fill="#210D00" width="16.8" height="16.8"/>
			<rect x="171.1" y="194.8" fill="#A95400" width="16.8" height="16.8"/>
			<rect x="171.1" y="178" fill="#3DEBCB" width="16.8" height="16.8"/>
			<rect x="171.1" y="161.2" fill="#2CB199" width="16.8" height="16.8"/>
			<rect x="171.1" y="144.4" fill="#3DEBCB" width="16.8" height="16.8"/>
			<rect x="171.1" y="127.6" fill="#0E3F36" width="16.8" height="16.8"/>
			<rect x="154.3" y="211.6" fill="#210D00" width="16.8" height="16.8"/>
			<rect x="154.3" y="194.8" fill="#3DEBCB" width="16.8" height="16.8"/>
			<rect x="154.3" y="178" fill="#3DEBCB" width="16.8" height="16.8"/>
			<rect x="154.3" y="161.2" fill="#2CB199" width="16.8" height="16.8"/>
			<rect x="154.3" y="144.4" fill="#3DEBCB" width="16.8" height="16.8"/>
			<rect x="154.3" y="127.6" fill="#0E3F36" width="16.8" height="16.8"/>
			<rect x="137.6" y="278.7" fill="#0E3F36" width="16.8" height="16.8"/>
			<rect x="137.6" y="261.9" fill="#0E3F36" width="16.8" height="16.8"/>
			<rect x="137.6" y="245.1" fill="#0E3F36" width="16.8" height="16.8"/>
			<rect x="137.6" y="228.3" fill="#0E3F36" width="16.8" height="16.8"/>
			<rect x="137.6" y="211.6" fill="#2CB199" width="16.8" height="16.8"/>
			<rect x="137.6" y="194.8" fill="#2CB199" width="16.8" height="16.8"/>
			<rect x="137.6" y="178" fill="#2CB199" width="16.8" height="16.8"/>
			<rect x="137.6" y="161.2" fill="#A95400" width="16.8" height="16.8"/>
			<rect x="137.6" y="144.4" fill="#432100" width="16.8" height="16.8"/>
			<rect x="120.8" y="278.7" fill="#2CB199" width="16.8" height="16.8"/>
			<rect x="120.8" y="261.9" fill="#2CB199" width="16.8" height="16.8"/>
			<rect x="120.8" y="245.1" fill="#2CB199" width="16.8" height="16.8"/>
			<rect x="120.8" y="228.3" fill="#2CB199" width="16.8" height="16.8"/>
			<rect x="120.8" y="211.6" fill="#2CB199" width="16.8" height="16.8"/>
			<rect x="120.8" y="194.8" fill="#3DEBCB" width="16.8" height="16.8"/>
			<rect x="120.8" y="178" fill="#3DEBCB" width="16.8" height="16.8"/>
			<rect x="120.8" y="161.2" fill="#210D00" width="16.8" height="16.8"/>
			<rect x="120.8" y="144.4" fill="#663200" width="16.8" height="16.8"/>
			<rect x="104" y="278.7" fill="#0E3F36" width="16.8" height="16.8"/>
			<rect x="104" y="261.9" fill="#0E3F36" width="16.8" height="16.8"/>
			<rect x="104" y="245.1" fill="#0E3F36" width="16.8" height="16.8"/>
			<rect x="104" y="228.3" fill="#0E3F36" width="16.8" height="16.8"/>
			<rect x="104" y="211.6" fill="#0E3F36" width="16.8" height="16.8"/>
			<rect x="104" y="194.8" fill="#0E3F36" width="16.8" height="16.8"/>
			<rect x="104" y="178" fill="#0E3F36" width="16.8" height="16.8"/>
		</g>
		<g>
			<polygon fill="none" points="357.9,359.8 357.9,352.2 356.1,352.2 356.1,344.9 340.2,344.9 340.2,327.7 338.4,327.7 338.4,328.2 
				323.1,328.2 323.1,311.9 311.3,311.9 311.3,311.5 305.9,311.5 305.9,294.3 288.7,294.3 288.7,278 272,278 272,260.4 255.7,260.4 
				255.7,244.6 240.8,244.6 240.8,226.5 240.3,226.5 240.3,227.4 221.4,227.4 221.4,209.8 206,209.8 206,197.6 205.5,197.6 
				205.5,179.9 272,179.9 272,163.7 272.9,163.7 272.9,162.8 288.7,162.8 288.7,143.3 272.9,143.3 272.9,127.1 153.6,127.1 
				153.6,144.2 119.7,144.2 119.7,177.2 103.4,177.2 103.4,296.1 120.1,296.1 120.1,299.7 121,299.7 121,313.3 138.2,313.3 
				138.2,296.1 155.4,296.1 155.4,229.2 157.2,229.2 157.2,228.8 186.6,228.8 186.6,246.8 204.2,246.8 204.2,264 220.9,264 
				220.9,281.2 236.7,281.2 236.7,296.6 253.9,296.6 253.9,313.3 271.5,313.3 271.5,330.5 287.4,330.5 287.4,349.4 304.5,349.4 
				304.5,363.9 320.8,363.9 320.8,380.6 338.4,380.6 338.4,396.5 372.9,396.5 372.9,359.8 			"/>
			<path fill="none" d="M339.6,380.3c10.9-0.4,22,0.6,33-0.6"/>
			<path fill="none" d="M322.1,363.2c16.6,0.3,33.8,1,50.5-0.2"/>
			<path fill="none" d="M288.5,346c21.7-0.1,43.8,1,65.7,0.7"/>
			<path fill="none" d="M272.8,329.3c22.1-0.5,44.2,0.3,66.2,0.4"/>
			<path fill="none" d="M254.8,312.1c18.6-0.3,36.8,0.4,55.2,0.5"/>
			<path fill="none" d="M122.2,312.1c4.9,0,9.8,0,14.7,0"/>
			<path fill="none" d="M238,295.4c22.3,0.6,44.4,0.6,66.7,0.6"/>
			<path fill="none" d="M104.5,295.5c16.4-0.9,33.2,0.2,49.6-0.3"/>
			<path fill="none" d="M222.2,278.5c21.9,0,43.3,0.7,65.1,0.4"/>
			<path fill="none" d="M104.5,278.7c16.4-0.9,33.2,0.2,49.6-0.3"/>
			<path fill="none" d="M205.5,261.8c21.9-0.1,43.7-0.1,65.4,0.1"/>
			<path fill="none" d="M104.5,261.9c16.4-0.9,33.2,0.2,49.6-0.3"/>
			<path fill="none" d="M187.7,244.8c17.1,1.6,34.6,0.9,51.8,0.2"/>
			<path fill="none" d="M104.5,245.1c16.4-0.9,33.2,0.2,49.6-0.3"/>
			<path fill="none" d="M187.7,228c17.1,1.6,34.6,0.9,51.8,0.2"/>
			<path fill="none" d="M104.5,228.3c17.1-0.9,34.3,0.2,51.3-0.3"/>
			<path fill="none" d="M104.5,211.6c13.9-0.5,27.8-0.5,41.8-0.2c24.6,0,49.3-0.4,73.9,0.1"/>
			<path fill="none" d="M104.5,194.8c19.6-0.5,38.9-0.5,58.5-0.2c13.9,0,27.9-0.4,41.7,0"/>
			<path fill="none" d="M121,177.8c50,0,99.6,0,149.6,0"/>
			<path fill="none" d="M121,161.1c55.7,0,111,0,166.6,0"/>
			<path fill="none" d="M154.8,144.1c44.3,0.1,88.2,0.1,132.5,0.2"/>
			<path fill="none" d="M356.1,353.5c-0.2,14.3,0.9,28.5,0,42.8"/>
			<path fill="none" d="M339.1,329.1c0,22.6,1.1,44.8,0.2,67.3"/>
			<path fill="none" d="M322.3,329.4c-0.3,16.6,0.4,33.4,0.5,50.1"/>
			<path fill="none" d="M305.2,312.6c0.4,16.9-0.7,33.3,0.6,50.1"/>
			<path fill="none" d="M288.5,295.6c0.2,17.5,1,35,0.1,52.6"/>
			<path fill="none" d="M271.5,279.3c0.1,11,0.1,21.7,0.2,32.8"/>
			<path fill="none" d="M271.8,128.2c-0.9,11.4,0.2,22.8-0.3,34.2"/>
			<path fill="none" d="M254.9,245.9c0,22.2,0,44,0.1,66.2"/>
			<path fill="none" d="M255,128.2c-0.7,13.1-0.2,26.3-0.1,39.4c0,3.7,0,7.4,0,11.1"/>
			<path fill="none" d="M238,228.7c0.1,22.3,0.1,44.4,0,66.5"/>
			<path fill="none" d="M238.2,128.2c-0.9,16.8,0.2,33.5-0.2,50.5"/>
			<path fill="none" d="M221.3,228.7c0,11.6,0,22.6-0.1,34"/>
			<path fill="none" d="M221.5,128.2c-0.5,16.8-0.5,33.5-0.4,50.4"/>
			<path fill="none" d="M204.7,128.2c-0.9,39.3,0.2,78.2-0.2,117.4"/>
			<path fill="none" d="M187.9,128.2c-0.9,39.3,0.2,78.2-0.2,117.4"/>
			<path fill="none" d="M171.1,128.2c-0.9,33.2,0.2,66-0.2,99.3"/>
			<path fill="none" d="M154.2,145.6c0,49.7,0,99.7,0,149.3"/>
			<path fill="none" d="M137.4,145.6c-0.4,18.3,0,36.1,0,54.3c-0.4,37.5,0,74.6,0.1,112.1"/>
			<path fill="none" d="M120.7,178.4c-0.1,39.1-0.1,77.6,0,116.4"/>
			<path fill="none" d="M120.6,145.6c-0.2,10.1,0,20.2,0.1,30.3"/>
			<path fill="none" d="M103.9,178.4c-0.1,39.1-0.1,77.6,0,116.5"/>
		</g>
	</g>
	<path fill="#FFFFFF" d="M256.1,564.6L248,558c-0.9-0.7-87.1-71.6-115-87.5c-27.6-15.7-112.8-42.5-113.7-42.8l-8.7-2.7L9,142.1
		l4.6-3.8c0.4-0.3,42.1-34.5,91.4-68.2C172.8,23.8,222.5,0,252.8,0h0.4c30.4,0,80.3,23,148.4,68.3c49.6,33,91.6,66.6,92,66.9
		l4.7,3.7l1.6,282.7l-8.3,3c-0.9,0.3-92.6,33.7-119.9,49.6c-28.6,16.6-106.9,83-107.7,83.7L256.1,564.6z M35.5,406.7
		c23.1,7.5,85.2,28.1,109.8,42.1c24.8,14.1,87.9,64.9,110.5,83.3c21.1-17.7,78.1-64.9,103.3-79.5c24.4-14.2,91.9-39.6,115.6-48.4
		L473.3,151C424.7,112.7,303,25,253.2,25H253c-49.7,0-170.6,89.7-218.9,128.9L35.5,406.7z"/>
	<path fill="#FFFFFF" d="M256.6,510.3l-2.2-1.5c-0.8-0.6-77-55.2-103.8-70.1c-22.3-12.4-94.6-40.5-95.3-40.8l-2.2-0.9l-3.7-232.8
		l1.3-1.1c0.3-0.3,35.4-29.6,76.9-58.6c56.2-39.2,97.1-59.3,121.5-59.7c0.2,0,0.5,0,0.7,0c24.6,0,66,18.9,123.1,56.2
		c42.2,27.6,77.9,55.6,78.2,55.9l1.3,1l3.7,232.8l-2.2,0.9c-0.7,0.3-73.1,29.7-95.2,42.7c-26.5,15.5-99.4,73.7-100.2,74.2
		L256.6,510.3z M60.1,392.1c12.6,4.9,73.3,28.8,94,40.3c24.9,13.8,89.4,59.8,102.3,69c12.4-9.8,74.2-58.7,98.9-73.2
		c20.6-12.1,81.3-37.1,93.9-42.2l-3.5-224.7C431.3,150.2,302.8,51.8,250,51.8l-0.6,0C196.9,52.6,70.7,155.7,56.5,167.4L60.1,392.1z"
		/>
</g>
</svg>
